<!--?xml version="1.0" standalone="no"?-->
              <svg id="sw-js-blob-svg" viewBox="0 0 100 100" xmlns="http://www.w3.org/2000/svg" version="1.1">
                    <defs> 
                        <linearGradient id="sw-gradient" x1="0" x2="1" y1="1" y2="0">
                            <stop id="stop1" stop-color="rgba(53, 80, 112, 1)" offset="0%"></stop>
                            <stop id="stop2" stop-color="rgba(181, 101, 118, 1)" offset="100%"></stop>
                        </linearGradient>
                    </defs>
                <path fill="url(#sw-gradient)" d="M26.6,-33.3C32.9,-26.5,35.4,-16.6,37.1,-6.6C38.9,3.4,39.9,13.5,36.1,21.6C32.4,29.7,23.8,35.7,14.3,38.9C4.9,42.2,-5.4,42.7,-14.8,39.7C-24.1,36.7,-32.4,30.1,-36.5,21.7C-40.6,13.3,-40.6,3.1,-36.2,-3.7C-31.8,-10.4,-23,-13.7,-16.3,-20.5C-9.5,-27.3,-4.8,-37.5,2.7,-40.7C10.2,-44,20.3,-40.1,26.6,-33.3Z" width="100%" height="100%" transform="translate(50 50)" stroke-width="0" style="transition: all 0.3s ease 0s;" stroke="url(#sw-gradient)"></path>
              </svg>