<!--?xml version="1.0" standalone="no"?-->
              <svg id="sw-js-blob-svg" viewBox="0 0 100 100" xmlns="http://www.w3.org/2000/svg" version="1.1">
                    <defs> 
                        <linearGradient id="sw-gradient" x1="0" x2="1" y1="1" y2="0">
                            <stop id="stop1" stop-color="rgba(234, 172, 139, 1)" offset="0%"></stop>
                            <stop id="stop2" stop-color="rgba(181, 101, 118, 1)" offset="100%"></stop>
                        </linearGradient>
                    </defs>
                <path fill="url(#sw-gradient)" d="M15.6,-24.5C21,-23.9,26.7,-21.3,26.5,-16.9C26.4,-12.5,20.5,-6.2,22.2,1C23.9,8.2,33.3,16.4,31.6,17.7C29.9,19,17.2,13.4,10.1,11.4C3,9.3,1.5,10.8,-2.3,14.8C-6.2,18.9,-12.3,25.4,-15.8,25.4C-19.2,25.3,-19.9,18.6,-21.2,13.3C-22.6,7.9,-24.5,4,-21.7,1.6C-18.9,-0.7,-11.3,-1.4,-10.1,-7.1C-9,-12.7,-14.2,-23.2,-13.6,-26.6C-13,-30,-6.5,-26.2,-0.7,-25C5.1,-23.8,10.2,-25.1,15.6,-24.5Z" width="100%" height="100%" transform="translate(50 50)" stroke-width="0" style="transition: all 0.3s ease 0s;" stroke="url(#sw-gradient)"></path>
              </svg>