<!--?xml version="1.0" standalone="no"?-->
              <svg id="sw-js-blob-svg" viewBox="0 0 100 100" xmlns="http://www.w3.org/2000/svg" version="1.1">
                    <defs> 
                        <linearGradient id="sw-gradient" x1="0" x2="1" y1="1" y2="0">
                            <stop id="stop1" stop-color="rgba(229, 107, 111, 1)" offset="0%"></stop>
                            <stop id="stop2" stop-color="rgba(181, 101, 118, 1)" offset="100%"></stop>
                        </linearGradient>
                    </defs>
                <path fill="url(#sw-gradient)" d="M9.4,-15.9C14.4,-13.5,22.2,-15.4,27.8,-13.4C33.4,-11.5,36.9,-5.8,38.6,1C40.3,7.7,40.2,15.4,34.8,17.7C29.3,19.9,18.5,16.6,11.8,14.6C5.2,12.6,2.6,11.9,-0.3,12.5C-3.2,13,-6.4,14.9,-11.6,16C-16.7,17.1,-23.7,17.4,-29.3,14.6C-34.9,11.8,-39.1,5.9,-36.9,1.3C-34.7,-3.3,-26,-6.7,-21,-10.4C-15.9,-14.2,-14.5,-18.4,-11.6,-22.1C-8.7,-25.7,-4.4,-28.8,-1.1,-26.9C2.2,-25.1,4.4,-18.3,9.4,-15.9Z" width="100%" height="100%" transform="translate(50 50)" stroke-width="0" style="transition: all 0.3s ease 0s;" stroke="url(#sw-gradient)"></path>
              </svg>